# Rhino

mtllib ipad_rack_collision.mtl
usemtl diffuse_0
v -0.45885565876960754 -0.28999999165534973 0.0067210001870989799
v -0.45885565876960754 -0.28999999165534973 0.6230810284614563
v -0.25749999284744263 -0.28999999165534973 0.0067210001870989799
v -0.25749999284744263 -0.28999999165534973 0.6230810284614563
v -0.25749999284744263 -0.28999999165534973 0.0067210001870989799
v -0.25749999284744263 -0.28999999165534973 0.6230810284614563
v -0.25749999284744263 0.28999999165534973 0.0067210001870989799
v -0.25749999284744263 0.28999999165534973 0.6230810284614563
v -0.25749999284744263 0.28999999165534973 0.0067210001870989799
v -0.25749999284744263 0.28999999165534973 0.6230810284614563
v -0.45885565876960754 0.28999999165534973 0.0067210001870989799
v -0.45885565876960754 0.28999999165534973 0.6230810284614563
v -0.45885565876960754 0.28999999165534973 0.0067210001870989799
v -0.45885565876960754 0.28999999165534973 0.6230810284614563
v -0.45885565876960754 -0.28999999165534973 0.0067210001870989799
v -0.45885565876960754 -0.28999999165534973 0.6230810284614563
v -0.45885565876960754 -0.28999999165534973 0.0067210001870989799
v -0.25749999284744263 -0.28999999165534973 0.0067210001870989799
v -0.25749999284744263 0.28999999165534973 0.0067210001870989799
v -0.45885565876960754 0.28999999165534973 0.0067210001870989799
v -0.45885565876960754 -0.28999999165534973 0.6230810284614563
v -0.25749999284744263 -0.28999999165534973 0.6230810284614563
v -0.25749999284744263 0.28999999165534973 0.6230810284614563
v -0.45885565876960754 0.28999999165534973 0.6230810284614563
vt 0 0
vt 0 0.80241197347640991
vt 0.10273972898721695 0
vt 0.10273972898721695 0.80241197347640991
vt 0.10273972898721695 0
vt 0.10273972898721695 0.80241197347640991
vt 0.5 0
vt 0.5 0.80241197347640991
vt 0.5 0
vt 0.5 0.80241197347640991
vt 0.60273975133895874 0
vt 0.60273975133895874 0.80241197347640991
vt 0.60273975133895874 0
vt 0.60273975133895874 0.80241197347640991
vt 1 0
vt 1 0.80241197347640991
vt 0.37114980816841125 1
vt 0.37114980816841125 0.80241274833679199
vt 0 0.80241274833679199
vt 0 1
vt 1 0.80241274833679199
vt 1 1
vt 0.62885016202926636 1
vt 0.62885016202926636 0.80241274833679199
vn 0 -1 0
vn 0 -1 0
vn 0 -1 0
vn 0 -1 0
vn 1 0 0
vn 1 0 0
vn 1 0 0
vn 1 0 0
vn 0 1 0
vn 0 1 0
vn 0 1 0
vn 0 1 0
vn -1 0 0
vn -1 0 0
vn -1 0 0
vn -1 0 0
vn 0 0 -1
vn 0 0 -1
vn 0 0 -1
vn 0 0 -1
vn 0 0 1
vn 0 0 1
vn 0 0 1
vn 0 0 1
f 1/1/1 3/3/3 4/4/4
f 5/5/5 7/7/7 8/8/8
f 9/9/9 11/11/11 12/12/12
f 13/13/13 15/15/15 16/16/16
f 18/18/18 17/17/17 20/20/20
f 20/20/20 19/19/19 18/18/18
f 22/22/22 24/24/24 21/21/21
f 24/24/24 22/22/22 23/23/23
f 1/1/1 4/4/4 2/2/2
f 5/5/5 8/8/8 6/6/6
f 9/9/9 12/12/12 10/10/10
f 13/13/13 16/16/16 14/14/14
